HIERARCHY
ROOT Root
{
	OFFSET 0.00 0.00 0.00
	CHANNELS 6 Xposition Yposition Zposition Xrotation Yrotation Zrotation
	JOINT L_Femur
	{
		OFFSET 2.71916 0.00000 0.00000
		CHANNELS 3 Xrotation Yrotation Zrotation
		JOINT L_Tibia
		{
			OFFSET 0.00000 -15.39883 0.00000
			CHANNELS 3 Xrotation Yrotation Zrotation
			JOINT L_Foot
			{
				OFFSET 0.00000 -15.97808 0.00000
				CHANNELS 3 Xrotation Yrotation Zrotation
				JOINT L_Toe
				{
					OFFSET 0.00000 -1.18848 4.43549
					CHANNELS 3 Xrotation Yrotation Zrotation
					End Site
					{
						OFFSET 0.00000 0.00000 2.95275
					}
				}
			}
		}
	}
	JOINT R_Femur
	{
		OFFSET -2.71916 0.00000 0.00000
		CHANNELS 3 Xrotation Yrotation Zrotation
		JOINT R_Tibia
		{
			OFFSET 0.00000 -15.39883 0.00000
			CHANNELS 3 Xrotation Yrotation Zrotation
			JOINT R_Foot
			{
				OFFSET 0.00000 -15.97808 0.00000
				CHANNELS 3 Xrotation Yrotation Zrotation
				JOINT R_Toe
				{
					OFFSET 0.00000 -1.18848 4.43549
					CHANNELS 3 Xrotation Yrotation Zrotation
					End Site
					{
						OFFSET 0.00000 0.00000 2.95275
					}
				}
			}
		}
	}
	JOINT LowerBack
	{
		OFFSET 0.00000 0.03937 0.00000
		CHANNELS 3 Xrotation Yrotation Zrotation
		JOINT Thorax
		{
			OFFSET 0.00000 8.14656 0.00000
			CHANNELS 3 Xrotation Yrotation Zrotation
			JOINT Neck
			{
				OFFSET 0.00000 9.84250 0.00000
				CHANNELS 3 Xrotation Yrotation Zrotation
				JOINT head
				{
					OFFSET 0.00000 5.52432 0.00000
					CHANNELS 3 Xrotation Yrotation Zrotation
					End Site
					{
						OFFSET 0.00000 4.52755 0.00000
					}
				}
			}
			JOINT L_Collar
			{
				OFFSET 0.00000 9.84250 0.00000
				CHANNELS 3 Xrotation Yrotation Zrotation
				JOINT L_Humerus
				{
					OFFSET 5.74971 -0.00002 0.00000
					CHANNELS 3 Xrotation Yrotation Zrotation
					JOINT L_Elbow
					{
						OFFSET 10.80305 -0.00004 0.00000
						CHANNELS 3 Xrotation Yrotation Zrotation
						JOINT L_Wrist
						{
							OFFSET 8.59979 -0.00003 0.00000
							CHANNELS 3 Xrotation Yrotation Zrotation
							JOINT L_Wrist_End
							{
								OFFSET 3.93700 -0.00001 0.00000
								CHANNELS 3 Xrotation Yrotation Zrotation
							}
						}
					}
				}
			}
			JOINT R_Collar
			{
				OFFSET 0.00000 9.84250 0.00000
				CHANNELS 3 Xrotation Yrotation Zrotation
				JOINT R_Humerus
				{
					OFFSET -5.74971 -0.00002 0.00000
					CHANNELS 3 Xrotation Yrotation Zrotation
					JOINT R_Elbow
					{
						OFFSET -10.80305 -0.00004 0.00000
						CHANNELS 3 Xrotation Yrotation Zrotation
						JOINT R_Wrist
						{
							OFFSET -8.59979 -0.00003 0.00000
							CHANNELS 3 Xrotation Yrotation Zrotation
							JOINT R_Wrist_End
							{
								OFFSET -5.41338 -0.00002 0.00000
								CHANNELS 3 Xrotation Yrotation Zrotation
							}
						}
					}
				}
			}
		}
	}
}
MOTION
Frames: 10
Frame Time: 0.008333
 0.6262 33.6917 -3.2400 -5.9565 -0.1100 0.1687 11.8059 0.0668 6.4749 5.9382 -0.0000 0.0000 14.2769 5.9313 5.4987 -44.9773 0.0000 0.0000 16.0515 8.0206 -9.4441 2.0426 -0.0000 0.0000 -9.2237 -39.8871 79.4763 31.3277 -0.0000 -0.0000 -0.8763 1.5852 -4.0757 5.2306 0.2975 3.4109 3.9610 4.6756 1.2180 -4.0585 -8.2696 -5.2127 -9.0164 -3.4547 17.3567 -26.6572 6.2963 -15.4053 0.0000 2.4620 -0.0000 14.2710 14.4779 3.3594 -0.0000 0.0000 -0.0000 -10.4935 1.4564 -16.3727 -18.3793 -14.5002 15.5656 -0.0000 10.6950 0.0000 20.5269 -20.8516 7.6795 -0.0000 -0.0000 0.0000
 0.6282 33.6936 -3.2329 -6.0110 -0.1816 0.1508 11.9128 0.1703 6.4708 5.8547 -0.0000 0.0000 14.3278 5.8721 5.5037 -45.0213 0.0000 -0.0000 16.1404 8.1250 -9.4520 1.9971 0.0000 -0.0000 -9.2170 -39.8868 79.4123 31.3080 -0.0000 -0.0000 -0.9633 1.6605 -4.0039 5.4580 0.3552 3.3423 4.0423 4.6493 1.2729 -4.4054 -8.3042 -5.3151 -8.9181 -3.2917 17.2042 -26.8374 5.8985 -15.3172 0.0000 2.7413 -0.0000 14.0784 14.2345 3.3505 -0.0000 0.0000 -0.0000 -10.6275 1.3716 -16.4577 -18.3802 -14.5279 15.6856 -0.0000 10.7073 0.0000 20.5318 -20.8733 7.5951 -0.0000 0.0000 -0.0000
 0.6283 33.6933 -3.2328 -6.0324 -0.1541 0.1497 11.9120 0.1267 6.4753 5.9096 -0.0000 -0.0000 14.3130 5.9061 5.4778 -44.9942 0.0000 0.0000 16.1646 8.0792 -9.4410 1.9888 0.0000 0.0000 -9.1755 -39.9210 79.4911 31.3976 -0.0000 0.0000 -0.9462 1.6549 -4.0060 5.4781 0.3482 3.3274 3.9432 4.6152 1.2832 -4.2836 -8.3149 -5.2853 -8.9247 -3.2928 17.2579 -26.8865 5.9279 -15.3818 0.0000 2.7304 -0.0000 14.0734 14.3013 3.3784 -0.0000 0.0000 -0.0000 -10.6378 1.3758 -16.4185 -18.2938 -14.5231 15.6578 -0.0000 10.6580 0.0000 20.3847 -20.8606 7.5409 -0.0000 0.0000 -0.0000
 0.6284 33.6935 -3.2305 -6.0407 -0.1818 0.1427 11.9477 0.1394 6.4773 5.8700 -0.0000 -0.0000 14.3004 5.8993 5.4790 -44.9609 0.0000 -0.0000 16.1761 8.1083 -9.4437 1.9859 0.0000 -0.0000 -9.1979 -39.9037 79.4396 31.3447 -0.0000 0.0000 -0.9550 1.6438 -4.0004 5.4580 0.3325 3.3072 4.0018 4.6271 1.3194 -4.2849 -8.2941 -5.3123 -8.8987 -3.2933 17.2873 -26.8362 5.9418 -15.3947 0.0000 2.7741 -0.0000 14.0714 14.2583 3.2971 -0.0000 0.0000 -0.0000 -10.6066 1.4069 -16.4341 -18.8448 -14.5141 15.5958 -0.0000 10.3657 0.0000 20.9078 -20.7730 7.6846 -0.0000 -0.0000 0.0000
 0.6301 33.6929 -3.2331 -6.0435 -0.1760 0.1414 11.9642 0.1400 6.4775 5.8271 -0.0000 0.0000 14.3115 5.8969 5.5129 -44.9893 0.0000 -0.0000 16.1658 8.0957 -9.4444 1.9979 -0.0000 -0.0000 -9.2004 -39.8746 79.4519 31.3763 -0.0000 0.0000 -0.9489 1.6484 -3.9935 5.4701 0.3372 3.3060 4.0034 4.6128 1.3183 -4.3251 -8.3112 -5.3283 -8.9118 -3.2884 17.2821 -26.8130 5.9406 -15.4331 0.0000 2.7195 -0.0000 14.0910 14.2327 3.2705 -0.0000 0.0000 -0.0000 -10.5907 1.3993 -16.4427 -19.0825 -14.5517 15.5423 -0.0000 10.2639 0.0000 21.1906 -20.6675 7.7027 -0.0000 0.0000 -0.0000
 0.6287 33.6932 -3.2354 -6.0558 -0.1642 0.1413 11.9571 0.1432 6.4814 5.8581 -0.0000 0.0000 14.3014 5.9112 5.5226 -44.9455 0.0000 -0.0000 16.1688 8.0653 -9.4366 2.0026 0.0000 0.0000 -9.2202 -39.8530 79.4002 31.3291 -0.0000 0.0000 -0.9345 1.6451 -3.9959 5.4883 0.3337 3.2985 3.9760 4.5925 1.3071 -4.3183 -8.3360 -5.3031 -8.9879 -3.3020 17.2747 -26.6924 5.9099 -15.4502 0.0000 2.7181 -0.0000 13.9635 14.2545 3.2770 -0.0000 0.0000 -0.0000 -10.5678 1.3769 -16.3778 -18.4411 -14.4951 15.6041 -0.0000 10.5424 0.0000 20.4827 -20.7943 7.5616 -0.0000 -0.0000 0.0000
 0.6280 33.6926 -3.2327 -6.0611 -0.1466 0.1433 11.9550 0.2159 6.4884 5.8504 -0.0000 0.0000 14.3091 5.7885 5.5018 -45.0118 0.0000 -0.0000 16.1977 8.0781 -9.4360 1.9813 0.0000 0.0000 -9.1981 -39.8844 79.4469 31.2778 -0.0000 0.0000 -0.9372 1.6467 -3.9980 5.4839 0.3329 3.2892 3.9699 4.5748 1.3431 -4.3017 -8.3323 -5.3551 -8.9732 -3.3113 17.2902 -26.6993 5.9022 -15.4868 0.0000 2.7395 -0.0000 13.8683 14.1579 3.2950 -0.0000 0.0000 -0.0000 -10.5608 1.3817 -16.3630 -18.2277 -14.5240 15.6190 -0.0000 10.6629 0.0000 20.4022 -20.8675 7.6149 -0.0000 0.0000 -0.0000
 0.6307 33.6927 -3.2292 -6.0625 -0.1277 0.1376 11.9952 0.0404 6.4849 5.8256 -0.0000 0.0000 14.3265 5.9813 5.4710 -45.0269 0.0000 -0.0000 16.2111 8.0619 -9.4301 1.9664 -0.0000 0.0000 -9.1743 -39.9058 79.4741 31.3355 -0.0000 0.0000 -0.9469 1.6282 -3.9857 5.4736 0.3110 3.2789 3.9924 4.5986 1.3155 -4.2901 -8.3299 -5.2968 -8.9318 -3.2913 17.3050 -26.7431 5.9179 -15.5171 0.0000 2.7212 -0.0000 13.8157 14.1862 3.2727 -0.0000 0.0000 -0.0000 -10.5687 1.3680 -16.4005 -18.7556 -14.5186 15.5730 -0.0000 10.4192 0.0000 20.9087 -20.7983 7.7435 -0.0000 0.0000 -0.0000
 0.6298 33.6931 -3.2290 -6.0767 -0.1207 0.1386 11.9823 0.1417 6.4907 5.8518 -0.0000 0.0000 14.3106 5.8518 5.4808 -44.9712 0.0000 0.0000 16.2083 8.0025 -9.4235 1.9868 0.0000 -0.0000 -9.1907 -39.8707 79.4707 31.3560 -0.0000 0.0000 -0.9420 1.6232 -3.9872 5.4810 0.3045 3.2680 4.0011 4.6011 1.2981 -4.2699 -8.3387 -5.2561 -8.9051 -3.2923 17.3187 -26.7353 5.9159 -15.5494 0.0000 2.7354 -0.0000 13.7401 14.1821 3.3223 -0.0000 0.0000 -0.0000 -10.5702 1.3323 -16.4239 -19.1573 -14.5660 15.5530 -0.0000 10.3740 0.0000 21.1608 -20.8416 7.8109 -0.0000 -0.0000 0.0000
 0.6299 33.6931 -3.2289 -6.0784 -0.1205 0.1393 11.9811 0.1512 6.4916 5.8594 -0.0000 0.0000 14.3064 5.8610 5.5186 -44.9739 0.0000 0.0000 16.2124 8.0127 -9.4248 1.9816 -0.0000 -0.0000 -9.1855 -39.8651 79.4699 31.3631 -0.0000 0.0000 -0.9372 1.6240 -3.9881 5.4819 0.3056 3.2683 4.0018 4.5961 1.2960 -4.2927 -8.3440 -5.2735 -8.9561 -3.2955 17.3049 -26.6310 5.9018 -15.5655 0.0000 2.7038 -0.0000 13.7480 14.1338 3.2369 -0.0000 0.0000 -0.0000 -10.5834 1.3224 -16.3981 -18.4705 -14.4864 15.6671 -0.0000 10.5931 0.0000 20.5656 -20.9249 7.5740 -0.0000 0.0000 -0.0000
